# xmcd
#
# Track frame offsets:
#	182
#	17370
#	52250
#
# Disc length: 905 seconds
#
# Revision: 0
# Processed by: cddbd v1.5.1PL0 Copyright (c) Steve Scherf et al.
# Submitted via: dBpowerAMP V4.0
#
DISCID=1d038703
DTITLE=Michel FUGAIN - CD3Titres Madison
DYEAR=1900
DGENRE=
TTITLE0=Les Lilas
TTITLE1=Medley Soleil
TTITLE2=La liberté, demandez la
EXTD=
EXTT0=
EXTT1=
EXTT2=
PLAYORDER=
